<svg width="48" height="48" viewBox="0 0 139 122" fill="none" xmlns="http://www.w3.org/2000/svg">
<g filter="url(#filter0_d_0_1)">
<path d="M69.5 0L84.8792 43.5319H134.647L94.3841 70.4361L109.763 113.968L69.5 87.0639L29.2367 113.968L44.6159 70.4361L4.35263 43.5319H54.1208L69.5 0Z" fill="url(#paint0_linear_0_1)" shape-rendering="crispEdges"/>
<path d="M69.5 0L84.8792 43.5319H134.647L94.3841 70.4361L109.763 113.968L69.5 87.0639L29.2367 113.968L44.6159 70.4361L4.35263 43.5319H54.1208L69.5 0Z" fill="black" fill-opacity="0.2" shape-rendering="crispEdges"/>
<path d="M69.5 1.50101L84.4078 43.6985L84.5256 44.0319H84.8792H132.999L94.1063 70.0204L93.7832 70.2363L93.9126 70.6027L108.791 112.717L69.7778 86.6481L69.5 86.4625L69.2222 86.6481L30.209 112.717L45.0874 70.6027L45.2168 70.2363L44.8937 70.0204L6.00085 44.0319H54.1208H54.4744L54.5922 43.6985L69.5 1.50101Z" stroke="black" shape-rendering="crispEdges"/>
</g>
<defs>
<filter id="filter0_d_0_1" x="0.352631" y="0" width="138.295" height="121.968" filterUnits="userSpaceOnUse" color-interpolation-filters="sRGB">
<feFlood flood-opacity="0" result="BackgroundImageFix"/>
<feColorMatrix in="SourceAlpha" type="matrix" values="0 0 0 0 0 0 0 0 0 0 0 0 0 0 0 0 0 0 127 0" result="hardAlpha"/>
<feOffset dy="4"/>
<feGaussianBlur stdDeviation="2"/>
<feComposite in2="hardAlpha" operator="out"/>
<feColorMatrix type="matrix" values="0 0 0 0 0 0 0 0 0 0 0 0 0 0 0 0 0 0 0.25 0"/>
<feBlend mode="normal" in2="BackgroundImageFix" result="effect1_dropShadow_0_1"/>
<feBlend mode="normal" in="SourceGraphic" in2="effect1_dropShadow_0_1" result="shape"/>
</filter>
<linearGradient id="paint0_linear_0_1" x1="69.5" y1="0" x2="69.5" y2="126" gradientUnits="userSpaceOnUse">
<stop stop-color="#DB1FB5" stop-opacity="0.6"/>
<stop offset="0.316" stop-color="#C61ED5" stop-opacity="0.6"/>
<stop offset="0.621" stop-color="#7818A8" stop-opacity="0.6"/>
<stop offset="1" stop-color="#371175" stop-opacity="0.6"/>
</linearGradient>
</defs>
</svg>
